<svg width="1941" height="486" viewBox="0 0 1941 486" fill="none" xmlns="http://www.w3.org/2000/svg">
<path d="M0.403125 108.2H134.003V113.8H95.6031L178.403 330.6L262.803 113.8H226.803V108.2H303.203V113.8H268.803L156.003 403.8H144.403L34.0031 113.8H0.403125V108.2ZM289.875 108.2H418.675V113.8H387.075L468.675 253.4L542.275 113.8H507.475V108.2H583.875V113.8H549.075L471.875 260.6V387.4H509.075V393H377.075V387.4H413.875V275.8L321.075 113.8H289.875V108.2ZM689.516 113.8H675.116C665.249 113.8 656.449 114.867 648.716 117C640.982 118.867 634.049 122.333 627.916 127.4C621.782 132.2 616.316 139 611.516 147.8C606.716 156.6 602.316 167.8 598.316 181.4H593.116V108.2H843.916V181.4H838.716C834.716 167.8 830.316 156.6 825.516 147.8C820.716 139 815.249 132.2 809.116 127.4C802.982 122.333 796.049 118.867 788.316 117C780.582 114.867 771.782 113.8 761.916 113.8H747.516V387.4H784.316V393H652.716V387.4H689.516V113.8ZM968.347 237.4H984.747C996.747 237.4 1006.21 235.8 1013.15 232.6C1020.08 229.4 1025.28 225.133 1028.75 219.8C1032.21 214.2 1034.35 207.933 1035.15 201C1036.21 194.067 1036.75 187 1036.75 179.8C1036.75 168.067 1035.95 158.067 1034.35 149.8C1032.75 141.267 1030.08 134.333 1026.35 129C1022.61 123.4 1017.41 119.267 1010.75 116.6C1004.35 113.933 996.08 112.6 985.947 112.6C983.014 112.6 980.08 112.733 977.147 113C974.214 113.267 971.28 113.533 968.347 113.8V237.4ZM910.347 113.8H873.547V108.2H933.947C945.147 108.2 956.214 108.067 967.147 107.8C978.08 107.267 989.147 107 1000.35 107C1010.75 107 1021.68 108.067 1033.15 110.2C1044.88 112.333 1055.55 116.067 1065.15 121.4C1074.75 126.467 1082.61 133.4 1088.75 142.2C1095.15 151 1098.35 162.067 1098.35 175.4C1098.35 186.067 1095.95 195.267 1091.15 203C1086.35 210.467 1080.08 216.6 1072.35 221.4C1064.88 226.2 1056.48 229.933 1047.15 232.6C1037.81 235 1028.61 236.6 1019.55 237.4V239.4C1032.61 241.8 1044.21 244.2 1054.35 246.6C1064.75 249 1073.68 252.6 1081.15 257.4C1088.61 262.2 1094.48 268.867 1098.75 277.4C1103.28 285.933 1106.08 297.4 1107.15 311.8C1108.48 328.6 1109.55 342.067 1110.35 352.2C1111.15 362.333 1112.21 370.2 1113.55 375.8C1115.15 381.4 1117.15 385.133 1119.55 387C1122.21 388.867 1125.95 389.8 1130.75 389.8C1136.08 389.8 1140.48 388.333 1143.95 385.4C1147.41 382.2 1150.48 379.267 1153.15 376.6L1157.15 380.2C1154.48 382.867 1151.81 385.4 1149.15 387.8C1146.75 389.933 1143.81 391.8 1140.35 393.4C1137.15 395 1133.15 396.2 1128.35 397C1123.55 398.067 1117.55 398.6 1110.35 398.6C1095.68 398.6 1084.21 396.333 1075.95 391.8C1067.68 387 1061.55 381.133 1057.55 374.2C1053.55 367.267 1051.01 359.8 1049.95 351.8C1049.15 343.533 1048.61 335.8 1048.35 328.6C1047.81 317.667 1047.01 307.133 1045.95 297C1045.15 286.6 1043.01 277.4 1039.55 269.4C1036.08 261.4 1030.88 255 1023.95 250.2C1017.01 245.4 1007.28 243 994.747 243H968.347V387.4H1005.15V393H873.547V387.4H910.347V113.8ZM1163.82 108.2H1295.42V113.8H1258.62V387.4H1295.42V393H1163.82V387.4H1200.62V113.8H1163.82V108.2ZM1324.71 108.2H1419.11L1552.31 298.6H1553.11V113.8H1516.31V108.2H1596.31V113.8H1559.51V393H1548.71L1368.71 136.6H1367.91V387.4H1404.71V393H1324.71V387.4H1361.51V113.8H1324.71V108.2ZM1621.59 108.2H1753.19V113.8H1716.39V245H1831.99V113.8H1795.19V108.2H1926.79V113.8H1889.99V387.4H1926.79V393H1795.19V387.4H1831.99V250.6H1716.39V387.4H1753.19V393H1621.59V387.4H1658.39V113.8H1621.59V108.2Z" fill="black"/>
</svg>
