<svg width="689" height="516" viewBox="0 0 689 516" fill="none" xmlns="http://www.w3.org/2000/svg">
<path d="M0.379687 108.2H133.98V113.8H95.5797L178.38 330.6L262.78 113.8H226.78V108.2H303.18V113.8H268.78L155.98 403.8H144.38L33.9797 113.8H0.379687V108.2ZM289.852 108.2H418.652V113.8H387.052L468.652 253.4L542.252 113.8H507.452V108.2H583.852V113.8H549.052L471.852 260.6V387.4H509.052V393H377.052V387.4H413.852V275.8L321.052 113.8H289.852V108.2ZM604.692 368.6C604.692 360.867 607.492 354.2 613.092 348.6C618.692 343 625.359 340.2 633.092 340.2C640.826 340.2 647.492 343 653.092 348.6C658.692 354.2 661.492 360.867 661.492 368.6C661.492 376.333 658.692 383 653.092 388.6C647.492 393.933 640.826 396.6 633.092 396.6C625.359 396.6 618.692 393.933 613.092 388.6C607.492 383 604.692 376.333 604.692 368.6Z" fill="black"/>
</svg>
